<svg xmlns="http://www.w3.org/2000/svg" xmlns:xlink="http://www.w3.org/1999/xlink" width="500" zoomAndPan="magnify" viewBox="0 0 375 374.999991" height="500" preserveAspectRatio="xMidYMid meet" version="1.0"><defs><g/></defs><g fill="#000000" fill-opacity="1"><g transform="translate(22.421858, 311.934177)"><g><path d="M 111.8125 -250.578125 L 144.390625 -250.578125 C 147.734375 -250.578125 149.40625 -248.90625 149.40625 -245.5625 L 149.40625 -5.015625 C 149.40625 -1.671875 147.734375 0 144.390625 0 L 113.390625 0 C 110.460938 0 108.582031 -1.359375 107.75 -4.078125 L 59.828125 -137.8125 L 58.265625 -137.8125 L 58.265625 -5.015625 C 58.265625 -1.671875 56.59375 0 53.25 0 L 20.671875 0 C 17.328125 0 15.65625 -1.671875 15.65625 -5.015625 L 15.65625 -245.5625 C 15.65625 -248.90625 17.328125 -250.578125 20.671875 -250.578125 L 51.6875 -250.578125 C 54.601562 -250.578125 56.476562 -249.21875 57.3125 -246.5 L 104.921875 -113.390625 L 106.8125 -113.390625 L 106.8125 -245.5625 C 106.8125 -248.90625 108.476562 -250.578125 111.8125 -250.578125 Z M 111.8125 -250.578125 "/></g></g></g><g fill="#000000" fill-opacity="1"><g transform="translate(187.483778, 311.934177)"><g><path d="M 111.8125 -250.578125 L 144.390625 -250.578125 C 147.734375 -250.578125 149.40625 -248.90625 149.40625 -245.5625 L 149.40625 -5.015625 C 149.40625 -1.671875 147.734375 0 144.390625 0 L 113.390625 0 C 110.460938 0 108.582031 -1.359375 107.75 -4.078125 L 59.828125 -137.8125 L 58.265625 -137.8125 L 58.265625 -5.015625 C 58.265625 -1.671875 56.59375 0 53.25 0 L 20.671875 0 C 17.328125 0 15.65625 -1.671875 15.65625 -5.015625 L 15.65625 -245.5625 C 15.65625 -248.90625 17.328125 -250.578125 20.671875 -250.578125 L 51.6875 -250.578125 C 54.601562 -250.578125 56.476562 -249.21875 57.3125 -246.5 L 104.921875 -113.390625 L 106.8125 -113.390625 L 106.8125 -245.5625 C 106.8125 -248.90625 108.476562 -250.578125 111.8125 -250.578125 Z M 111.8125 -250.578125 "/></g></g></g></svg>